<svg width="120" height="120" viewBox="0 0 120 120" fill="none" xmlns="http://www.w3.org/2000/svg">
    <circle cx="60" cy="60" r="60" fill="#E8DEF8"/>
    <path d="M60 30C43.9 30 31 42.9 31 59C31 75.1 43.9 88 60 88C76.1 88 89 75.1 89 59C89 42.9 76.1 30 60 30ZM60 84C46.2 84 35 72.8 35 59C35 45.2 46.2 34 60 34C73.8 34 85 45.2 85 59C85 72.8 73.8 84 60 84Z" fill="#6750A4"/>
    <path d="M77.5 57.5H62.5V42.5C62.5 41.1 61.4 40 60 40C58.6 40 57.5 41.1 57.5 42.5V57.5H42.5C41.1 57.5 40 58.6 40 60C40 61.4 41.1 62.5 42.5 62.5H57.5V77.5C57.5 78.9 58.6 80 60 80C61.4 80 62.5 78.9 62.5 77.5V62.5H77.5C78.9 62.5 80 61.4 80 60C80 58.6 78.9 57.5 77.5 57.5Z" fill="#6750A4"/>
</svg> 